<svg width="91" height="29" viewBox="0 0 91 29" fill="none" xmlns="http://www.w3.org/2000/svg">
<path d="M41.2285 18.3594C41.2285 18.0273 41.1764 17.7344 41.0723 17.4805C40.9746 17.2201 40.7988 16.9857 40.5449 16.7773C40.2975 16.569 39.9525 16.3704 39.5098 16.1816C39.0736 15.9928 38.5202 15.8008 37.8496 15.6055C37.1465 15.3971 36.5117 15.166 35.9453 14.9121C35.3789 14.6517 34.8939 14.3555 34.4902 14.0234C34.0866 13.6914 33.7773 13.3105 33.5625 12.8809C33.3477 12.4512 33.2402 11.9596 33.2402 11.4062C33.2402 10.8529 33.3542 10.3418 33.582 9.87305C33.8099 9.4043 34.1354 8.9974 34.5586 8.65234C34.9883 8.30078 35.4993 8.02734 36.0918 7.83203C36.6842 7.63672 37.3451 7.53906 38.0742 7.53906C39.1419 7.53906 40.0469 7.74414 40.7891 8.1543C41.5378 8.55794 42.1074 9.08854 42.498 9.74609C42.8887 10.3971 43.084 11.0938 43.084 11.8359H41.209C41.209 11.3021 41.0951 10.8301 40.8672 10.4199C40.6393 10.0033 40.2943 9.67773 39.832 9.44336C39.3698 9.20247 38.7839 9.08203 38.0742 9.08203C37.4036 9.08203 36.8503 9.18294 36.4141 9.38477C35.9779 9.58659 35.6523 9.86003 35.4375 10.2051C35.2292 10.5501 35.125 10.944 35.125 11.3867C35.125 11.6862 35.1868 11.9596 35.3105 12.207C35.4408 12.4479 35.6393 12.6725 35.9062 12.8809C36.1797 13.0892 36.5247 13.2812 36.9414 13.457C37.3646 13.6328 37.8691 13.8021 38.4551 13.9648C39.2624 14.1927 39.959 14.4466 40.5449 14.7266C41.1309 15.0065 41.6126 15.3223 41.9902 15.6738C42.3743 16.0189 42.6576 16.4128 42.8398 16.8555C43.0286 17.2917 43.123 17.7865 43.123 18.3398C43.123 18.9193 43.0059 19.4434 42.7715 19.9121C42.5371 20.3809 42.2018 20.7812 41.7656 21.1133C41.3294 21.4453 40.8053 21.7025 40.1934 21.8848C39.5879 22.0605 38.9108 22.1484 38.1621 22.1484C37.5046 22.1484 36.8568 22.0573 36.2188 21.875C35.5872 21.6927 35.0111 21.4193 34.4902 21.0547C33.9759 20.6901 33.5625 20.2409 33.25 19.707C32.944 19.1667 32.791 18.5417 32.791 17.832H34.666C34.666 18.3203 34.7604 18.7402 34.9492 19.0918C35.138 19.4368 35.3952 19.7233 35.7207 19.9512C36.0527 20.179 36.4271 20.3483 36.8438 20.459C37.2669 20.5632 37.7064 20.6152 38.1621 20.6152C38.8197 20.6152 39.3763 20.5241 39.832 20.3418C40.2878 20.1595 40.6328 19.8991 40.8672 19.5605C41.1081 19.222 41.2285 18.8216 41.2285 18.3594ZM47.0586 6.95312V21.9531H45.252V6.95312H47.0586ZM46.6289 16.2695L45.877 16.2402C45.8835 15.5176 45.9909 14.8503 46.1992 14.2383C46.4076 13.6198 46.7005 13.0827 47.0781 12.627C47.4557 12.1712 47.9049 11.8197 48.4258 11.5723C48.9531 11.3184 49.5358 11.1914 50.1738 11.1914C50.6947 11.1914 51.1634 11.263 51.5801 11.4062C51.9967 11.543 52.3516 11.7643 52.6445 12.0703C52.944 12.3763 53.1719 12.7734 53.3281 13.2617C53.4844 13.7435 53.5625 14.3327 53.5625 15.0293V21.9531H51.7461V15.0098C51.7461 14.4564 51.6647 14.0137 51.502 13.6816C51.3392 13.3431 51.1016 13.099 50.7891 12.9492C50.4766 12.793 50.0924 12.7148 49.6367 12.7148C49.1875 12.7148 48.7773 12.8092 48.4062 12.998C48.0417 13.1868 47.7259 13.4473 47.459 13.7793C47.1986 14.1113 46.9935 14.4922 46.8438 14.9219C46.7005 15.3451 46.6289 15.7943 46.6289 16.2695ZM55.7891 16.7871V16.5625C55.7891 15.8008 55.8997 15.0944 56.1211 14.4434C56.3424 13.7858 56.6615 13.2161 57.0781 12.7344C57.4948 12.2461 57.9993 11.8685 58.5918 11.6016C59.1842 11.3281 59.8483 11.1914 60.584 11.1914C61.3262 11.1914 61.9935 11.3281 62.5859 11.6016C63.1849 11.8685 63.6927 12.2461 64.1094 12.7344C64.5326 13.2161 64.8548 13.7858 65.0762 14.4434C65.2975 15.0944 65.4082 15.8008 65.4082 16.5625V16.7871C65.4082 17.5488 65.2975 18.2552 65.0762 18.9062C64.8548 19.5573 64.5326 20.127 64.1094 20.6152C63.6927 21.097 63.1882 21.4746 62.5957 21.748C62.0098 22.015 61.3457 22.1484 60.6035 22.1484C59.8613 22.1484 59.194 22.015 58.6016 21.748C58.0091 21.4746 57.5013 21.097 57.0781 20.6152C56.6615 20.127 56.3424 19.5573 56.1211 18.9062C55.8997 18.2552 55.7891 17.5488 55.7891 16.7871ZM57.5957 16.5625V16.7871C57.5957 17.3145 57.6576 17.8125 57.7812 18.2812C57.9049 18.7435 58.0905 19.1536 58.3379 19.5117C58.5918 19.8698 58.9076 20.153 59.2852 20.3613C59.6628 20.5632 60.1022 20.6641 60.6035 20.6641C61.0983 20.6641 61.5312 20.5632 61.9023 20.3613C62.2799 20.153 62.5924 19.8698 62.8398 19.5117C63.0872 19.1536 63.2728 18.7435 63.3965 18.2812C63.5267 17.8125 63.5918 17.3145 63.5918 16.7871V16.5625C63.5918 16.0417 63.5267 15.5501 63.3965 15.0879C63.2728 14.6191 63.084 14.2057 62.8301 13.8477C62.5827 13.4831 62.2702 13.1966 61.8926 12.9883C61.5215 12.7799 61.0853 12.6758 60.584 12.6758C60.0892 12.6758 59.653 12.7799 59.2754 12.9883C58.9043 13.1966 58.5918 13.4831 58.3379 13.8477C58.0905 14.2057 57.9049 14.6191 57.7812 15.0879C57.6576 15.5501 57.5957 16.0417 57.5957 16.5625ZM69.4805 13.0469V21.9531H67.6738V11.3867H69.4316L69.4805 13.0469ZM72.7812 11.3281L72.7715 13.0078C72.6217 12.9753 72.4785 12.9557 72.3418 12.9492C72.2116 12.9362 72.0618 12.9297 71.8926 12.9297C71.4759 12.9297 71.1081 12.9948 70.7891 13.125C70.4701 13.2552 70.1999 13.4375 69.9785 13.6719C69.7572 13.9062 69.5814 14.1862 69.4512 14.5117C69.3275 14.8307 69.2461 15.1823 69.207 15.5664L68.6992 15.8594C68.6992 15.2214 68.7611 14.6224 68.8848 14.0625C69.015 13.5026 69.2135 13.0078 69.4805 12.5781C69.7474 12.1419 70.0859 11.8034 70.4961 11.5625C70.9128 11.3151 71.4076 11.1914 71.9805 11.1914C72.1107 11.1914 72.2604 11.2077 72.4297 11.2402C72.599 11.2663 72.7161 11.2956 72.7812 11.3281ZM79.3633 11.3867V12.7734H73.6504V11.3867H79.3633ZM75.584 8.81836H77.3906V19.3359C77.3906 19.694 77.446 19.9642 77.5566 20.1465C77.6673 20.3288 77.8105 20.4492 77.9863 20.5078C78.1621 20.5664 78.3509 20.5957 78.5527 20.5957C78.7025 20.5957 78.8587 20.5827 79.0215 20.5566C79.1908 20.5241 79.3177 20.498 79.4023 20.4785L79.4121 21.9531C79.2689 21.9987 79.0801 22.041 78.8457 22.0801C78.6178 22.1257 78.3411 22.1484 78.0156 22.1484C77.5729 22.1484 77.166 22.0605 76.7949 21.8848C76.4238 21.709 76.1276 21.416 75.9062 21.0059C75.6914 20.5892 75.584 20.0293 75.584 19.3262V8.81836ZM87.6348 19.1504C87.6348 18.89 87.5762 18.6491 87.459 18.4277C87.3483 18.1999 87.1172 17.9948 86.7656 17.8125C86.4206 17.6237 85.8997 17.4609 85.2031 17.3242C84.6172 17.2005 84.0866 17.054 83.6113 16.8848C83.1426 16.7155 82.7422 16.5104 82.4102 16.2695C82.0846 16.0286 81.834 15.7454 81.6582 15.4199C81.4824 15.0944 81.3945 14.7135 81.3945 14.2773C81.3945 13.8607 81.4857 13.4668 81.668 13.0957C81.8568 12.7246 82.1204 12.3958 82.459 12.1094C82.804 11.8229 83.2174 11.5983 83.6992 11.4355C84.181 11.2728 84.7181 11.1914 85.3105 11.1914C86.1569 11.1914 86.8796 11.3411 87.4785 11.6406C88.0775 11.9401 88.5365 12.3405 88.8555 12.8418C89.1745 13.3366 89.334 13.8867 89.334 14.4922H87.5273C87.5273 14.1992 87.4395 13.916 87.2637 13.6426C87.0944 13.3626 86.8438 13.1315 86.5117 12.9492C86.1862 12.7669 85.7858 12.6758 85.3105 12.6758C84.8092 12.6758 84.4023 12.7539 84.0898 12.9102C83.7839 13.0599 83.5592 13.252 83.416 13.4863C83.2793 13.7207 83.2109 13.9681 83.2109 14.2285C83.2109 14.4238 83.2435 14.5996 83.3086 14.7559C83.3802 14.9056 83.5039 15.0456 83.6797 15.1758C83.8555 15.2995 84.1029 15.4167 84.4219 15.5273C84.7409 15.638 85.1478 15.7487 85.6426 15.8594C86.5085 16.0547 87.2214 16.2891 87.7812 16.5625C88.3411 16.8359 88.7578 17.1712 89.0312 17.5684C89.3047 17.9655 89.4414 18.4473 89.4414 19.0137C89.4414 19.4759 89.3438 19.8991 89.1484 20.2832C88.9596 20.6673 88.6829 20.9993 88.3184 21.2793C87.9603 21.5527 87.5306 21.7676 87.0293 21.9238C86.5345 22.0736 85.9779 22.1484 85.3594 22.1484C84.4284 22.1484 83.6406 21.9824 82.9961 21.6504C82.3516 21.3184 81.8633 20.8887 81.5312 20.3613C81.1992 19.834 81.0332 19.2773 81.0332 18.6914H82.8496C82.8757 19.1862 83.0189 19.5801 83.2793 19.873C83.5397 20.1595 83.8587 20.3646 84.2363 20.4883C84.6139 20.6055 84.9883 20.6641 85.3594 20.6641C85.8542 20.6641 86.2676 20.599 86.5996 20.4688C86.9382 20.3385 87.1953 20.1595 87.3711 19.9316C87.5469 19.7038 87.6348 19.4434 87.6348 19.1504Z" fill="#0F0F0F"/>
<g clip-path="url(#clip0_1_10929)">
<path d="M17.77 13.2731L16.57 12.7731L18 12.0131C18.8779 11.549 19.5354 10.7552 19.828 9.80622C20.1205 8.85728 20.0242 7.831 19.56 6.95313C19.0959 6.07527 18.302 5.41773 17.3531 5.12517C16.4042 4.83261 15.3779 4.929 14.5 5.39313L6.00002 9.89313C5.37524 10.2196 4.85544 10.7159 4.50053 11.325C4.14563 11.934 3.97008 12.631 3.99412 13.3355C4.01816 14.04 4.24081 14.7234 4.63641 15.3068C5.03201 15.8903 5.58444 16.35 6.23002 16.6331L7.43002 17.1231L6.00002 17.8831C5.14934 18.3628 4.51933 19.1554 4.24397 20.0923C3.96861 21.0293 4.06963 22.0367 4.52555 22.9003C4.98147 23.764 5.75631 24.4157 6.68529 24.7169C7.61427 25.0181 8.6241 24.945 9.50002 24.5131L18 20.0131C18.6248 19.6867 19.1446 19.1903 19.4995 18.5813C19.8544 17.9722 20.03 17.2753 20.0059 16.5708C19.9819 15.8662 19.7592 15.1829 19.3636 14.5994C18.968 14.016 18.4156 13.5562 17.77 13.2731Z" fill="#FF0000"/>
<path d="M10 17.6032L15 14.9532L10 12.3032V17.6032Z" fill="white"/>
</g>
<defs>
<clipPath id="clip0_1_10929">
<rect width="24" height="24" fill="white" transform="translate(0 2.95312)"/>
</clipPath>
</defs>
</svg>
