<svg width="19" height="17" viewBox="0 0 19 17" fill="none" xmlns="http://www.w3.org/2000/svg">
<path d="M14.6094 0H13.6094H4.17938C3.10938 0 2.19938 0.67 1.98938 1.61L0.649382 7.61C0.379382 8.85 1.42938 10 2.83938 10H7.06938L5.54938 14.94C5.22938 15.97 6.06938 17 7.22938 17C7.80938 17 8.36938 16.76 8.74938 16.35L14.6094 10H18.6094V0H14.6094ZM8.00938 15.67C7.81938 15.88 7.52938 16 7.22938 16C6.96938 16 6.72938 15.89 6.59938 15.7C6.52938 15.6 6.44938 15.44 6.50938 15.23L8.02938 10.29L8.42938 9H7.06938H2.83938C2.42938 9 2.03938 8.83 1.80938 8.54C1.68938 8.39 1.55938 8.14 1.62938 7.82L2.96938 1.82C3.06938 1.35 3.57938 1 4.17938 1H13.6094V9.61L8.00938 15.67ZM17.6094 9H14.6094V1H17.6094V9Z" fill="#0F0F0F"/>
</svg>
