<svg width="19" height="17" viewBox="0 0 19 17" fill="none" xmlns="http://www.w3.org/2000/svg">
<path d="M16.6763 7H12.4462L13.9662 2.06C14.2862 1.03 13.4462 0 12.2863 0C11.7063 0 11.1462 0.24 10.7662 0.65L4.90625 7H0.90625V17H4.90625H5.90625H15.3363C16.3962 17 17.3163 16.33 17.5263 15.39L18.8662 9.39C19.1362 8.15 18.0863 7 16.6763 7ZM4.90625 16H1.90625V8H4.90625V16ZM17.8862 9.17L16.5462 15.17C16.4462 15.65 15.9363 16 15.3363 16H5.90625V7.39L11.5063 1.33C11.6962 1.12 11.9862 1 12.2863 1C12.5463 1 12.7863 1.11 12.9163 1.3C12.9862 1.4 13.0663 1.56 13.0063 1.77L11.4862 6.71L11.0863 8H12.4362H16.6663C17.0763 8 17.4663 8.17 17.6963 8.46C17.8263 8.61 17.9562 8.86 17.8862 9.17Z" fill="#0F0F0F"/>
</svg>
